<svg xmlns="http://www.w3.org/2000/svg" viewBox="0 0 370 68.32975922611081" preserveAspectRatio="xMidYMid meet" class="css-1r4bsbq" id="bcfheccf"><defs id="SvgjsDefs1017"><linearGradient id="SvgjsLinearGradient1022"><stop id="SvgjsStop1023" stop-color="#00ff8f" offset="0"/><stop id="SvgjsStop1024" stop-color="#00a1ff" offset="1"/></linearGradient><linearGradient id="SvgjsLinearGradient1025"><stop id="SvgjsStop1026" stop-color="#00ddff" offset="0"/><stop id="SvgjsStop1027" stop-color="#ff00d4" offset="1"/></linearGradient></defs><g id="SvgjsG1018" featurekey="symbolFeature-0" transform="matrix(0.10706638115631692,0,0,0.10706638115631692,-3.5331905781584583,-19.3683076976964)" fill="url(#SvgjsLinearGradient1022)"><g xmlns="http://www.w3.org/2000/svg"><polygon points="943.4,706.5 730.7,732.4 730.7,747.6 967,719.8  "/><polygon points="730.7,717.1 919.6,693.2 896,680 730.7,701.5  "/><polygon points="730.7,620.6 777.3,613.6 753.7,600.3 730.7,603.9  "/><polygon points="730.7,653.6 824.8,640.1 801.1,626.9 730.7,637.2  "/><polygon points="730.7,685.7 872.2,666.7 848.5,653.4 730.7,669.8  "/><polygon points="298.8,230.8 541,194.1 517.4,180.9 275.5,218.6 275.2,218.4 275.2,671.2 33,708.9 56.6,721.1 298.8,684.4  "/><polygon points="346.3,255.3 588.5,220.7 564.8,207.4 322.9,243.1 322.6,242.9 322.6,697.7 80.4,733.4 104,745.6 346.3,711  "/><polygon points="393.7,279.8 635.9,247.2 612.2,234 370.3,267.6 370,267.4 370,724.3 127.8,757.9 151.5,770.1 393.7,737.5  "/><polygon points="441.1,304.3 683.3,273.8 659.6,260.5 417.8,292.1 417.4,291.9 417.4,750.8 175.2,782.4 198.9,794.6 441.1,764  "/><polygon points="707.1,287.1 465.2,316.6 464.9,316.4 464.9,777.3 222.7,806.9 246.3,819.1 488.5,790.6 488.5,328.8 730.7,300.3     "/></g></g><g id="SvgjsG1019" featurekey="nameFeature-0" transform="matrix(2.228958557750624,0,0,2.228958557750624,115.54208288449875,-23.747502693007487)" fill="url(#SvgjsLinearGradient1025)"><path d="M8 30 l0 10 l-6 0 l0 -28 l6 0 l0 9.84 c1.4 -1.48 3.16 -2.04 5.16 -2.04 c5.68 0 9.24 4.88 9.24 10.2 l0 10 l-6 0 l0 -10 c0 -2.72 -1.08 -4.64 -4 -4.64 c-2.88 0 -4.4 1.84 -4.4 4.64 z M40.120000000000005 30 c-0.16 -2.92 -1.48 -4.64 -4.52 -4.64 c-0.84 0 -1.56 0.12 -2.16 0.36 c-1.84 0.84 -2.52 2.4 -2.52 4.32 c0 0.64 0.08 1.24 0.28 1.76 c0.6 2.08 2.4 2.84 4.4 2.84 c3.04 0 4.52 -1.64 4.52 -4.64 z M47.72 40 l-6 0 c-0.4 -1 -0.76 -2 -1 -3.04 c-1.36 2.24 -3.44 3.24 -6 3.24 c-5.72 0 -9.8 -4.8 -9.8 -10.28 c0 -6.32 4.72 -10.12 10.68 -10.12 c6.36 0 10.36 4.08 10.52 10.2 c0.04 0.52 0.04 1.12 0.04 1.84 c0 2.8 0.44 5.6 1.56 8.16 z M69.16000000000001 20 l-8.2 20 l-6 0 l-8.2 -20 l5.96 0 c0.88 2.28 1.76 4.52 2.64 6.8 c0.84 2.28 1.72 4.52 2.6 6.8 c0.88 -2.28 1.76 -4.52 2.64 -6.8 c0.84 -2.28 1.72 -4.52 2.6 -6.8 l5.96 0 z M91.68 20 l-8.2 20 l-6 0 l-8.2 -20 l5.96 0 c0.88 2.28 1.76 4.52 2.64 6.8 c0.84 2.28 1.72 4.52 2.6 6.8 c0.88 -2.28 1.76 -4.52 2.64 -6.8 c0.84 -2.28 1.72 -4.52 2.6 -6.8 l5.96 0 z M114.16 30 l0 10 l-6 0 l0 -10 c0 -2.76 -1.28 -4.64 -4.2 -4.64 c-2.88 0 -4.2 1.92 -4.2 4.64 l0 10 l-6 0 l0 -10 c0 -6.16 4.24 -10.2 10.2 -10.2 c6.2 0 10.2 4.24 10.2 10.2 z"/></g></svg>